<svg xmlns="http://www.w3.org/2000/svg" viewBox="0 0 128 128" width="128" height="128" role="img" aria-label="ResearchFlow academic planning">
  <defs>
    <linearGradient id="bg" x1="18" y1="14" x2="110" y2="114" gradientUnits="userSpaceOnUse">
      <stop offset="0" stop-color="#0f766e"/>
      <stop offset="0.62" stop-color="#2563eb"/>
      <stop offset="1" stop-color="#1e40af"/>
    </linearGradient>
    <filter id="shadow" x="-20%" y="-20%" width="140%" height="140%">
      <feDropShadow dx="0" dy="8" stdDeviation="7" flood-color="#0f172a" flood-opacity="0.25"/>
    </filter>
  </defs>

  <rect x="6" y="6" width="116" height="116" rx="28" fill="url(#bg)"/>

  <g filter="url(#shadow)">
    <rect x="28" y="30" width="72" height="70" rx="14" fill="#ffffff"/>
    <rect x="28" y="30" width="72" height="70" rx="14" fill="none" stroke="#dbeafe" stroke-width="2"/>
    <path d="M28 48h72" stroke="#bfdbfe" stroke-width="4"/>
    <path d="M46 26v14M82 26v14" stroke="#ffffff" stroke-width="8" stroke-linecap="round"/>
    <path d="M46 26v14M82 26v14" stroke="#0f766e" stroke-width="4" stroke-linecap="round"/>
  </g>

  <g fill="none" stroke-linecap="round" stroke-linejoin="round">
    <path d="M43 83h43" stroke="#dbeafe" stroke-width="4"/>
    <path d="M44 78l13-13 12 8 18-21" stroke="#0f766e" stroke-width="7"/>
    <path d="M44 78l13-13 12 8 18-21" stroke="#14b8a6" stroke-width="4"/>
  </g>

  <g>
    <circle cx="44" cy="78" r="6" fill="#0f766e" stroke="#ecfeff" stroke-width="3"/>
    <circle cx="57" cy="65" r="6" fill="#2563eb" stroke="#eff6ff" stroke-width="3"/>
    <circle cx="69" cy="73" r="6" fill="#f59e0b" stroke="#fffbeb" stroke-width="3"/>
    <circle cx="87" cy="52" r="6" fill="#16a34a" stroke="#f0fdf4" stroke-width="3"/>
  </g>

  <g>
    <path d="M41 56h19" stroke="#94a3b8" stroke-width="4" stroke-linecap="round"/>
    <path d="M41 92h28" stroke="#94a3b8" stroke-width="4" stroke-linecap="round"/>
    <path d="M76 88l21-8-21-8-21 8z" fill="#0f172a"/>
    <path d="M62 83v8c0 5 28 5 28 0v-8" fill="none" stroke="#0f172a" stroke-width="4" stroke-linecap="round" stroke-linejoin="round"/>
    <path d="M97 80v11" stroke="#f59e0b" stroke-width="4" stroke-linecap="round"/>
    <circle cx="97" cy="94" r="3" fill="#f59e0b"/>
  </g>
</svg>
